<svg xmlns="http://www.w3.org/2000/svg" width="143" height="144" viewBox="0 0 143 144" fill="none">
  <path fill-rule="evenodd" clip-rule="evenodd" d="M71.0728 20.7169C79.5946 20.7169 86.4998 27.6429 86.4998 36.1797V38.4996H55.6416V36.1797C55.6416 27.6429 62.551 20.7169 71.0728 20.7169Z" fill="#FF9600"/>
  <path d="M54.5983 35.8845C63.6951 35.8845 71.0713 28.625 71.0713 19.6709C71.0713 10.7168 63.6951 3.45728 54.5983 3.45728C45.4973 3.45728 38.1211 10.7168 38.1211 19.6709C38.1211 28.625 45.4973 35.8845 54.5983 35.8845Z" fill="#FF9600"/>
  <path d="M42.5662 35.623H101.144C112.121 35.623 121.019 44.5212 121.019 55.4977V112.334H22.6914V55.4977C22.6914 44.5212 31.5896 35.623 42.5662 35.623Z" fill="#FFC6B7"/>
  <mask id="mask0_18_1305" style="mask-type:luminance" maskUnits="userSpaceOnUse" x="22" y="35" width="100" height="78">
    <g opacity="0.33152">
      <path d="M42.5662 35.623H101.144C112.121 35.623 121.019 44.5212 121.019 55.4977V112.334H22.6914V55.4977C22.6914 44.5212 31.5896 35.623 42.5662 35.623Z" fill="#FF9600"/>
    </g>
  </mask>
  <g mask="url(#mask0_18_1305)">
    <path opacity="0.33152" d="M24.5222 9.21051H-28.8258C-35.3251 9.21051 -40.5938 14.4792 -40.5938 20.9785V58.6359C-40.5938 65.1351 -35.3251 70.4038 -28.8258 70.4038H24.5222C31.0215 70.4038 36.2902 65.1351 36.2902 58.6359V20.9785C36.2902 14.4792 31.0215 9.21051 24.5222 9.21051Z" fill="#FF9600"/>
  </g>
  <mask id="mask1_18_1305" style="mask-type:luminance" maskUnits="userSpaceOnUse" x="22" y="35" width="100" height="78">
    <g opacity="0.33152">
      <path d="M42.5662 35.623H101.144C112.121 35.623 121.019 44.5212 121.019 55.4977V112.334H22.6914V55.4977C22.6914 44.5212 31.5896 35.623 42.5662 35.623Z" fill="#FF9600"/>
    </g>
  </mask>
  <g mask="url(#mask1_18_1305)">
    <path opacity="0.33152" d="M174.89 9.21051H121.542C115.043 9.21051 109.774 14.4792 109.774 20.9785V58.6359C109.774 65.1351 115.043 70.4038 121.542 70.4038H174.89C181.39 70.4038 186.658 65.1351 186.658 58.6359V20.9785C186.658 14.4792 181.39 9.21051 174.89 9.21051Z" fill="#FF9600"/>
  </g>
  <path d="M123.504 82.9563C128.342 82.9563 132.264 79.034 132.264 74.1957C132.264 69.3574 128.342 65.4351 123.504 65.4351C118.665 65.4351 114.743 69.3574 114.743 74.1957C114.743 79.034 118.665 82.9563 123.504 82.9563Z" fill="#FFC6B7"/>
  <path d="M19.6844 82.9563C24.5227 82.9563 28.445 79.034 28.445 74.1957C28.445 69.3574 24.5227 65.4351 19.6844 65.4351C14.8461 65.4351 10.9238 69.3574 10.9238 74.1957C10.9238 79.034 14.8461 82.9563 19.6844 82.9563Z" fill="#FFC6B7"/>
  <path fill-rule="evenodd" clip-rule="evenodd" d="M57.2501 45.5604C64.0599 45.5604 69.5803 51.0808 69.5803 57.8905V65.3907C69.5803 72.2004 64.0599 77.7208 57.2501 77.7208C50.4403 77.7208 44.9199 72.2004 44.9199 65.3907V57.8905C44.9199 51.0808 50.4403 45.5604 57.2501 45.5604Z" fill="white"/>
  <path fill-rule="evenodd" clip-rule="evenodd" d="M60.6547 52.8826C63.712 52.8826 66.1903 55.361 66.1903 58.4182V65.371C66.1903 68.4283 63.712 70.9066 60.6547 70.9066C57.5975 70.9066 55.1191 68.4283 55.1191 65.371V58.4182C55.1191 55.361 57.5975 52.8826 60.6547 52.8826Z" fill="#3D3D3D"/>
  <path fill-rule="evenodd" clip-rule="evenodd" d="M86.2772 45.5604C79.4675 45.5604 73.9471 51.0808 73.9471 57.8905V65.3907C73.9471 72.2004 79.4675 77.7208 86.2772 77.7208C93.087 77.7208 98.6074 72.2004 98.6074 65.3907V57.8905C98.6074 51.0808 93.087 45.5604 86.2772 45.5604Z" fill="white"/>
  <path d="M83.6578 52.8826C80.6005 52.8826 78.1222 55.361 78.1222 58.4182V65.371C78.1222 68.4283 80.6005 70.9066 83.6578 70.9066C86.715 70.9066 89.1934 68.4283 89.1934 65.371V58.4182C89.1934 55.361 86.715 52.8826 83.6578 52.8826Z" fill="#3D3D3D"/>
  <path d="M37.8594 74.066C50.9093 73.9978 62.2414 77.1355 71.8557 83.4793" stroke="#FFC6B7" stroke-width="5.49171"/>
  <path d="M72.7001 88.8477C67.8876 90.2866 64.1766 88.8561 61.5671 84.5563" stroke="#EE9583" stroke-width="2.6151" stroke-linecap="round" stroke-linejoin="round"/>
  <path d="M55.3805 58.8974C52.9252 58.8974 50.9348 56.907 50.9348 54.4517C50.9348 51.9964 52.9252 50.006 55.3805 50.006C57.8358 50.006 59.8262 51.9964 59.8262 54.4517C59.8262 56.907 57.8358 58.8974 55.3805 58.8974Z" fill="white"/>
  <path fill-rule="evenodd" clip-rule="evenodd" d="M71.4629 82.9563C74.1349 82.9563 76.3009 80.7854 76.3009 78.1075C76.3009 75.4297 71.4629 69.0963 71.4629 69.0963C71.4629 69.0963 66.625 75.4297 66.625 78.1075C66.625 80.7854 68.791 82.9563 71.4629 82.9563Z" fill="#EE9583"/>
  <path d="M117.094 109.777H26.9242C24.6943 109.777 22.8867 111.584 22.8867 113.814V136.693C22.8867 138.923 24.6943 140.73 26.9242 140.73H117.094C119.324 140.73 121.131 138.923 121.131 136.693V113.814C121.131 111.584 119.324 109.777 117.094 109.777Z" fill="#2FE3FF"/>
  <path fill-rule="evenodd" clip-rule="evenodd" d="M20.8612 107.015H122.327C127.815 107.015 132.264 111.464 132.264 116.953V117.737C132.264 123.225 127.815 127.674 122.327 127.674H20.8612C15.3729 127.674 10.9238 123.225 10.9238 117.737V116.953C10.9238 111.464 15.3729 107.015 20.8612 107.015Z" fill="#2FE3FF"/>
  <path d="M66.1021 117.606C66.1021 116.09 64.8727 114.86 63.3562 114.86C61.8397 114.86 60.6104 116.09 60.6104 117.606V133.558C60.6104 135.075 61.8397 136.304 63.3562 136.304C64.8727 136.304 66.1021 135.075 66.1021 133.558V117.606Z" fill="white"/>
  <path d="M82.8394 117.606C82.8394 116.09 81.61 114.86 80.0935 114.86C78.577 114.86 77.3477 116.09 77.3477 117.606V133.558C77.3477 135.075 78.577 136.304 80.0935 136.304C81.61 136.304 82.8394 135.075 82.8394 133.558V117.606Z" fill="white"/>
  <path fill-rule="evenodd" clip-rule="evenodd" d="M75.2495 57.5952C76.054 58.3997 77.1654 58.8974 78.3931 58.8974C80.8484 58.8974 82.8388 56.907 82.8388 54.4517C82.8388 51.9964 80.8484 50.006 78.3931 50.006C75.761 54.5291 74.7131 57.0589 75.2495 57.5952Z" fill="white"/>
</svg>