<svg xmlns="http://www.w3.org/2000/svg" width="180" height="99" viewBox="0 0 180 99" fill="none">
  <g clip-path="url(#clip0_18_2568)">
    <path d="M103.394 18.5159V2.21104C103.394 1.53003 103.946 0.978088 104.627 0.978088H129.124C129.805 0.978088 130.357 1.53003 130.357 2.21104V18.5159C130.357 19.1969 129.805 19.7488 129.124 19.7488H104.627C103.946 19.7488 103.394 19.1966 103.394 18.5159Z" fill="#EBF2F4"/>
    <path d="M128.507 17.7722V2.82727L105.243 2.82727V17.7722H128.507Z" fill="white"/>
    <path d="M103.952 14.5564L110.058 9.67164C111.395 8.6025 113.329 8.74475 114.495 9.99807L119.188 15.0449C119.414 15.2881 119.793 15.3084 120.043 15.0907L124.456 11.2628C125.347 10.4898 126.66 10.4536 127.592 11.1765L129.765 12.8608V18.7378H104.26L103.952 14.5564Z" fill="#EBF2F4"/>
    <path d="M120.037 10.126C121.473 10.126 122.637 8.96176 122.637 7.52561C122.637 6.08946 121.473 4.92523 120.037 4.92523C118.601 4.92523 117.437 6.08946 117.437 7.52561C117.437 8.96176 118.601 10.126 120.037 10.126Z" fill="#EBF2F4"/>
    <path d="M43.1772 17.5914V1.28654C43.1772 0.605529 43.7292 0.0535889 44.4102 0.0535889H68.907C69.588 0.0535889 70.14 0.605529 70.14 1.28654V17.5914C70.14 18.2724 69.588 18.8243 68.907 18.8243H44.4099C43.7292 18.824 43.1772 18.2721 43.1772 17.5914Z" fill="#EBF2F4"/>
    <path d="M68.2905 16.8477V1.90277L45.0264 1.90277V16.8477H68.2905Z" fill="white"/>
    <path d="M52.5745 10.9169C53.837 10.9169 54.8604 9.89344 54.8604 8.63096C54.8604 7.36848 53.837 6.34503 52.5745 6.34503C51.312 6.34503 50.2886 7.36848 50.2886 8.63096C50.2886 9.89344 51.312 10.9169 52.5745 10.9169Z" fill="#EBF2F4"/>
    <path d="M55.5025 16.8756V14.9404C55.5025 13.3301 54.1848 12.0124 52.5745 12.0124C50.9642 12.0124 49.6465 13.3301 49.6465 14.9404V16.8756H55.5025Z" fill="#EBF2F4"/>
    <path d="M60.742 9.47852C59.1317 9.47852 57.814 10.7962 57.814 12.4065V16.8757H63.67V12.4065C63.67 10.7962 62.3526 9.47852 60.742 9.47852Z" fill="#EBF2F4"/>
    <path d="M63.0279 8.38301V6.09708C63.0279 4.83448 62.0046 3.81116 60.742 3.81116C59.4794 3.81116 58.4561 4.83448 58.4561 6.09708V8.38301H63.0279Z" fill="#EBF2F4"/>
    <path d="M136.388 77.7484H37.145V37.3729C37.145 31.9484 41.5833 27.5101 47.0078 27.5101H126.525C131.95 27.5101 136.388 31.9484 136.388 37.3729V77.7484Z" fill="#CFE2E7"/>
    <path d="M54.5219 74.2406V61.4124C54.5219 51.8309 46.727 44.036 37.1455 44.036V74.2406H54.5219Z" fill="#ADCBD2"/>
    <path d="M44.7447 58.0876L40.4756 53.6409L49.507 44.9216C50.7348 43.7428 52.686 43.7824 53.865 45.0105C55.044 46.2384 55.0042 48.1895 53.7761 49.3685L44.7447 58.0876Z" fill="#FDD204"/>
    <path d="M71.1059 68.0758H77.9059L67.7194 47.111C66.9686 45.5834 65.1217 44.9533 63.5938 45.7041C62.0658 46.4549 61.436 48.3018 62.1868 49.8297L71.1059 68.0758Z" fill="#FDD204"/>
    <path d="M19.0779 84.3998C19.0779 84.3998 25.7521 81.6497 28.1593 74.3654C28.307 73.9183 27.7997 73.538 27.4103 73.8027L16.6162 81.1445L19.0779 84.3998Z" fill="#7CC142"/>
    <path d="M10.363 84.3998C10.363 84.3998 3.68878 81.6497 1.28157 74.3654C1.13392 73.9183 1.64124 73.538 2.03056 73.8027L12.8247 81.1445L10.363 84.3998Z" fill="#7CC142"/>
    <path d="M3.827 68.5999C4.3442 71.2707 5.9539 76.4607 10.8794 84.9916L13.4957 83.481L16.1119 81.9705C11.1864 73.4392 7.49682 69.4501 5.44239 67.667C4.73592 67.054 3.64911 67.6814 3.827 68.5999Z" fill="#52AE48"/>
    <path d="M25.614 68.5999C25.0968 71.2707 23.4871 76.4607 18.5616 84.9916L15.9454 83.481L13.3291 81.9705C18.2546 73.4392 21.9442 69.4501 23.9986 67.667C24.7051 67.054 25.7919 67.6814 25.614 68.5999Z" fill="#52AE48"/>
    <path d="M13.788 64.7258C12.9006 67.2975 11.6997 72.5967 11.6997 82.4478H14.7206H17.7414C17.7414 72.597 16.5405 67.2975 15.6531 64.7258C15.348 63.8415 14.0931 63.8415 13.788 64.7258Z" fill="#7CC142"/>
    <path d="M163.217 67.6361L161.644 67.8482C161.376 67.8844 161.209 67.5676 161.389 67.3663L162.513 66.1106C161.47 64.0574 160.338 62.6327 159.604 61.8298C159.165 61.3489 158.462 61.3489 158.022 61.8298C157.548 62.3485 156.907 63.1305 156.232 64.1685L156.92 65.2625C156.985 65.3658 156.886 65.4946 156.769 65.458L155.655 65.1085C154.47 67.1618 153.292 69.999 152.802 73.6524L158.813 80.9672L164.824 73.6524C164.511 71.3161 163.915 69.3147 163.217 67.6361Z" fill="#52AE48"/>
    <path d="M179.374 77.2812C177.43 75.741 173.581 73.4841 168.572 74.49C161.184 75.9737 157.391 83.0821 157.391 83.0821L171.702 80.3179L172.313 79.0951C172.392 78.9373 172.622 78.9556 172.675 79.1239L172.975 80.0723L178.974 78.9136C179.75 78.7633 179.994 77.7723 179.374 77.2812Z" fill="#52AE48"/>
    <path d="M174.404 69.8912C171.985 69.3465 167.535 68.9814 163.457 72.063C157.444 76.6055 157.111 84.6558 157.111 84.6558L165.973 78.0622L166.085 75.903C166.095 75.708 166.346 75.6361 166.458 75.7961L167.334 77.0494L174.747 71.5342C175.38 71.0637 175.173 70.0646 174.404 69.8912Z" fill="#7CC142"/>
    <path d="M138.253 77.2812C140.197 75.741 144.046 73.4841 149.055 74.49C156.443 75.9737 160.237 83.0821 160.237 83.0821L145.925 80.3179L145.315 79.0951C145.236 78.9373 145.005 78.9556 144.952 79.1239L144.653 80.0723L138.654 78.9136C137.877 78.7633 137.633 77.7723 138.253 77.2812Z" fill="#52AE48"/>
    <path d="M143.224 69.8912C145.643 69.3465 150.092 68.9814 154.171 72.063C160.184 76.6055 160.517 84.6558 160.517 84.6558L151.655 78.0622L151.543 75.903C151.532 75.708 151.281 75.6361 151.17 75.7961L150.293 77.0494L142.88 71.5342C142.248 71.0637 142.455 70.0646 143.224 69.8912Z" fill="#7CC142"/>
    <path d="M150.128 80.5883C149.582 80.5883 149.14 81.0306 149.14 81.5763V85.1757C149.14 88.915 151.263 92.1566 154.368 93.7669V95.4748H163.26V93.7669C166.365 92.1566 168.488 88.915 168.488 85.1757V81.5763C168.488 81.0306 168.046 80.5883 167.5 80.5883H150.128Z" fill="#ADCBD2"/>
    <path d="M168.488 82.8266H149.14V85.1754H168.488V82.8266Z" fill="#CFE2E7"/>
    <path d="M6.03388 80.5883C5.48823 80.5883 5.0459 81.0307 5.0459 81.5763V85.1757C5.0459 88.915 7.16891 92.1566 10.2742 93.7669V95.4748H19.1663V93.7669C22.2716 92.1566 24.3946 88.915 24.3946 85.1757V81.5763C24.3946 81.0307 23.9523 80.5883 23.4067 80.5883H6.03388Z" fill="#ADCBD2"/>
    <path d="M24.3943 82.8267H5.0459V85.1755H24.3943V82.8267Z" fill="#CFE2E7"/>
    <path d="M136.389 74.2403V44.0357C126.807 44.0357 119.012 51.8306 119.012 61.4121V74.2403H136.389Z" fill="#ADCBD2"/>
    <path d="M147.601 74.2403V61.4121C147.601 55.2455 142.555 50.1999 136.388 50.1999C130.222 50.1999 125.176 55.2455 125.176 61.4121V74.2403H147.601Z" fill="#CFE2E7"/>
    <path d="M142.977 90.3459H30.5562C28.0028 90.3459 25.9331 88.2762 25.9331 85.7229V74.2402H147.601V85.7229C147.6 88.2762 145.531 90.3459 142.977 90.3459Z" fill="#CFE2E7"/>
    <path d="M136.388 63.5036C138.155 63.5036 139.587 62.0715 139.587 60.3049C139.587 58.5383 138.155 57.1061 136.388 57.1061C134.622 57.1061 133.189 58.5383 133.189 60.3049C133.189 62.0715 134.622 63.5036 136.388 63.5036Z" fill="#EBF2F4"/>
    <path d="M125.176 74.2402V68.076H48.3575V74.2402H125.176Z" fill="#EBF2F4"/>
    <path d="M54.6334 90.3459H42.0811V95.4748H54.6334V90.3459Z" fill="#295575"/>
    <path d="M131.453 90.3459H118.9V95.4748H131.453V90.3459Z" fill="#295575"/>
    <path d="M171.846 98.7745H1.68743C0.780006 98.7745 0.0375977 98.0321 0.0375977 97.1247C0.0375977 96.2173 0.780006 95.4749 1.68743 95.4749H171.846C172.754 95.4749 173.496 96.2173 173.496 97.1247C173.496 98.0321 172.754 98.7745 171.846 98.7745Z" fill="#295575"/>
    <path d="M45.2746 53.6807C44.7676 54.1877 43.938 54.1877 43.431 53.6807L41.9237 52.1734C41.4167 51.6664 41.4167 50.8369 41.9237 50.3298C42.4307 49.8228 43.2603 49.8228 43.7673 50.3298L45.2746 51.8371C45.7816 52.3441 45.7816 53.1737 45.2746 53.6807Z" fill="#DD8265"/>
    <path d="M48.3575 74.2403V61.4121C48.3575 55.2455 43.3122 50.1999 37.1453 50.1999C30.9784 50.1999 25.9331 55.2455 25.9331 61.4121V74.2403H48.3575Z" fill="#CFE2E7"/>
    <path d="M37.145 63.5036C38.9116 63.5036 40.3438 62.0715 40.3438 60.3049C40.3438 58.5383 38.9116 57.1061 37.145 57.1061C35.3784 57.1061 33.9463 58.5383 33.9463 60.3049C33.9463 62.0715 35.3784 63.5036 37.145 63.5036Z" fill="#EBF2F4"/>
    <path d="M61.4609 42.329C61.4609 42.329 65.8393 43.2412 67.7195 47.1111L61.4609 47.2524V42.329Z" fill="#FDD204"/>
    <path d="M49.5068 44.9216C49.5068 44.9216 52.5298 42.3293 55.2523 42.3293V44.9216H49.5068Z" fill="#FDD204"/>
    <path d="M87.4557 71.3554C86.6725 70.9328 86.3772 69.9464 86.7998 69.1632L90.2127 62.8367C90.6352 62.0536 91.6217 61.7583 92.4049 62.1809C93.188 62.6034 93.4833 63.5899 93.0607 64.373L89.6479 70.6995C89.2253 71.4827 88.2388 71.778 87.4557 71.3554Z" fill="#E59A80"/>
    <path d="M92.1693 65.9654L86.2881 62.6636L100.099 38.0623C101.011 36.4382 103.067 35.8608 104.691 36.7724C106.315 37.6841 106.892 39.74 105.981 41.3641L92.1693 65.9654Z" fill="#4359A7"/>
    <path d="M131.591 53.5588H131.548L122.505 53.5612L122.566 46.8143H126.304L115.94 36.5814C118.572 33.9166 122.865 33.8896 125.529 36.5206L134.856 45.7298C136.528 47.3815 136.742 50.0495 135.147 52.0099C134.288 53.0656 132.952 53.5588 131.591 53.5588Z" fill="#4359A7"/>
    <path d="M121.654 61.1249V40.6845C121.654 37.7197 119.019 35.2939 115.798 35.2939H105.139C101.918 35.2939 99.2827 37.7197 99.2827 40.6845V61.1249H121.654Z" fill="#4359A7"/>
    <path d="M110.468 46.3905C114.502 46.3905 117.785 43.1082 117.785 39.0736V35.6506C117.163 35.4239 116.495 35.2939 115.797 35.2939H105.138C104.44 35.2939 103.773 35.4239 103.151 35.6506V39.0736C103.151 43.1085 106.433 46.3905 110.468 46.3905Z" fill="#2B4382"/>
    <path d="M110.468 44.8494C113.645 44.8494 116.244 42.2502 116.244 39.0736V35.3166C116.096 35.3053 115.948 35.2939 115.798 35.2939H105.139C104.988 35.2939 104.84 35.3053 104.692 35.3166V39.0736C104.692 42.2505 107.291 44.8494 110.468 44.8494Z" fill="#DD8265"/>
    <path d="M67.0585 60.9677V51.6886C67.0585 46.5409 62.8466 42.329 57.6992 42.329C52.5514 42.329 48.3398 46.5409 48.3398 51.6886V60.9677H67.0585Z" fill="#FDD204"/>
    <path d="M53.4189 42.6602V44.6973C53.4189 47.126 55.3949 49.102 57.8237 49.102C60.2525 49.102 62.2281 47.126 62.2281 44.6973V42.5503C61.7579 42.3916 61.4612 42.329 61.4612 42.329V43.1256C60.3082 42.615 59.0357 42.329 57.6991 42.329C56.8534 42.329 56.0337 42.4446 55.253 42.6575V42.329C54.6441 42.329 54.0206 42.4593 53.4189 42.6602Z" fill="#FDBC11"/>
    <path d="M57.8233 47.869C56.0789 47.869 54.6519 46.4417 54.6519 44.6975V34.9648C54.6519 33.2203 56.0792 31.7933 57.8233 31.7933C59.5678 31.7933 60.9948 33.2206 60.9948 34.9648V44.6975C60.9951 46.442 59.5678 47.869 57.8233 47.869Z" fill="#DD8265"/>
    <path d="M57.7116 28.1399C61.7349 28.1399 64.9964 24.8784 64.9964 20.8551C64.9964 16.8318 61.7349 13.5703 57.7116 13.5703C53.6883 13.5703 50.4268 16.8318 50.4268 20.8551C50.4268 24.8784 53.6883 28.1399 57.7116 28.1399Z" fill="#985632"/>
    <path d="M61.911 19.3355L61.8115 19.3119C61.2919 19.1888 60.9071 18.7506 60.8523 18.2194C60.7598 17.3248 59.7844 16.8148 58.997 17.2494L58.3187 17.6237C57.9411 17.8321 57.4829 17.8321 57.1055 17.6237L56.4272 17.2494C55.6399 16.8148 54.6645 17.3248 54.5719 18.2194C54.5171 18.7503 54.132 19.1888 53.6127 19.3119L53.5133 19.3355C52.5969 19.5527 52.2369 20.6643 52.8523 21.3774L53.6915 22.3498C53.9996 22.7068 54.4821 22.861 54.94 22.749L57.414 22.1437C57.6098 22.0958 57.8144 22.0958 58.0106 22.1437L60.4845 22.749C60.9428 22.861 61.4249 22.7068 61.7331 22.3498L62.5722 21.3774C63.1873 20.664 62.8274 19.5527 61.911 19.3355Z" fill="#FDD204"/>
    <path d="M67.2407 34.9581V29.0488C67.2407 23.8226 62.9647 19.5466 57.7385 19.5466C52.5123 19.5466 48.2363 23.8226 48.2363 29.0488V34.9581H67.2407Z" fill="#985632"/>
    <path d="M65.6406 36.6802C67.1591 36.6802 68.3902 35.4492 68.3902 33.9307C68.3902 32.4122 67.1591 31.1812 65.6406 31.1812C64.1221 31.1812 62.8911 32.4122 62.8911 33.9307C62.8911 35.4492 64.1221 36.6802 65.6406 36.6802Z" fill="#DD8265"/>
    <path d="M49.7573 36.6802C51.2758 36.6802 52.5068 35.4492 52.5068 33.9307C52.5068 32.4122 51.2758 31.1812 49.7573 31.1812C48.2388 31.1812 47.0078 32.4122 47.0078 33.9307C47.0078 35.4492 48.2388 36.6802 49.7573 36.6802Z" fill="#DD8265"/>
    <path d="M57.7385 23.1763C62.2978 23.1763 66.0281 26.9066 66.0281 31.4659V35.7233C66.0281 40.2826 62.2978 44.0126 57.7388 44.0126C53.1795 44.0126 49.4492 40.2823 49.4492 35.723V31.4656C49.4492 26.9066 53.1795 23.1763 57.7385 23.1763Z" fill="#E59A80"/>
    <path d="M62.2277 36.429C62.3162 36.1695 62.1775 35.8873 61.918 35.7988C61.6584 35.7102 61.3762 35.8489 61.2877 36.1085C61.1992 36.368 61.3379 36.6502 61.5974 36.7387C61.857 36.8272 62.1391 36.6886 62.2277 36.429Z" fill="#DD8265"/>
    <path d="M63.1818 34.9453C63.2703 34.6858 63.1316 34.4036 62.8721 34.3151C62.6125 34.2265 62.3303 34.3652 62.2418 34.6248C62.1533 34.8843 62.292 35.1665 62.5515 35.255C62.8111 35.3435 63.0932 35.2049 63.1818 34.9453Z" fill="#DD8265"/>
    <path d="M53.8877 36.69C54.1473 36.6015 54.2859 36.3193 54.1974 36.0597C54.1089 35.8002 53.8267 35.6615 53.5671 35.7501C53.3076 35.8386 53.1689 36.1208 53.2574 36.3803C53.346 36.6399 53.6281 36.7785 53.8877 36.69Z" fill="#DD8265"/>
    <path d="M52.9336 35.2063C53.1932 35.1178 53.3318 34.8356 53.2433 34.576C53.1548 34.3165 52.8726 34.1778 52.613 34.2664C52.3535 34.3549 52.2148 34.637 52.3033 34.8966C52.3919 35.1562 52.674 35.2948 52.9336 35.2063Z" fill="#DD8265"/>
    <path d="M57.7383 38.8499C55.7809 38.8499 54.426 37.8679 54.3691 37.826C54.2074 37.7068 54.173 37.4792 54.2922 37.3172C54.4114 37.1557 54.6387 37.121 54.801 37.2402C54.8124 37.2486 56.0285 38.1222 57.738 38.1222C59.4474 38.1222 60.6639 37.2486 60.6762 37.2396C60.8382 37.1213 61.0655 37.156 61.1844 37.3181C61.303 37.4798 61.2688 37.7071 61.1071 37.8257C61.0508 37.8682 59.6957 38.8499 57.7383 38.8499Z" fill="#D28871"/>
    <path d="M51.8913 31.7932C51.7406 31.7932 51.5915 31.73 51.487 31.6067C51.2986 31.3844 51.3228 31.0532 51.5436 30.863C51.5897 30.8232 52.6951 29.8918 54.5656 29.9895C54.8582 30.005 55.0828 30.2545 55.0675 30.5471C55.052 30.8397 54.8028 31.0622 54.5099 31.049C53.0832 30.9727 52.2671 31.6408 52.233 31.6692C52.1332 31.7528 52.0119 31.7932 51.8913 31.7932Z" fill="#82472B"/>
    <path d="M57.7501 36.8808H57.7264C57.1056 36.8808 56.5977 36.3729 56.5977 35.7521V32.9247C56.5977 32.3039 57.1056 31.796 57.7264 31.796H57.7501C58.3709 31.796 58.8788 32.3039 58.8788 32.9247V35.7521C58.8788 36.3729 58.3709 36.8808 57.7501 36.8808Z" fill="#DD8265"/>
    <path d="M55.1322 35.5957C54.7249 35.5957 54.3916 35.2624 54.3916 34.8551V32.5426C54.3916 32.1353 54.7249 31.8019 55.1322 31.8019C55.5395 31.8019 55.8728 32.1353 55.8728 32.5426V34.8551C55.8725 35.2624 55.5395 35.5957 55.1322 35.5957Z" fill="#B26955"/>
    <path d="M60.3446 35.5957C59.9373 35.5957 59.604 35.2624 59.604 34.8551V32.5426C59.604 32.1353 59.9373 31.8019 60.3446 31.8019C60.7519 31.8019 61.0852 32.1353 61.0852 32.5426V34.8551C61.0852 35.2624 60.7519 35.5957 60.3446 35.5957Z" fill="#B26955"/>
    <path d="M57.7383 22.4998C55.3077 22.4998 53.1128 23.5606 51.5933 25.2412V26.1939C51.5933 28.5277 53.2033 30.5534 55.4769 31.0802L66.0279 33.5248V30.7891C66.0279 26.2301 62.2975 22.4998 57.7383 22.4998Z" fill="#985632"/>
    <path d="M65.209 68.0758H50.1886C49.1674 68.0758 48.3394 67.2477 48.3394 66.2265V60.9673H67.0583V66.2265C67.0583 67.248 66.2302 68.0758 65.209 68.0758Z" fill="#DB90B5"/>
    <path d="M53.2065 89.4304C51.4446 89.4304 50.0029 87.989 50.0029 86.2269V80.1328C50.0029 78.371 51.4443 76.9293 53.2065 76.9293C54.9683 76.9293 56.41 78.3707 56.41 80.1328V86.2269C56.41 87.989 54.9683 89.4304 53.2065 89.4304Z" fill="#DB90B5"/>
    <path d="M54.1141 85.5611H52.2989C51.9584 85.5611 51.6826 85.285 51.6826 84.9448V81.6317H54.7307V84.9448C54.7307 85.2853 54.4546 85.5611 54.1141 85.5611Z" fill="#E59A80"/>
    <path d="M56.41 81.6317V63.4713C56.41 61.7095 54.9683 60.2678 53.2065 60.2678C51.4446 60.2678 50.0029 61.7095 50.0029 63.4713V81.6317H56.41Z" fill="#F1AACB"/>
    <path d="M62.1908 89.4304C60.429 89.4304 58.9873 87.989 58.9873 86.2269V80.1328C58.9873 78.371 60.4287 76.9293 62.1908 76.9293C63.9527 76.9293 65.3944 78.3707 65.3944 80.1328V86.2269C65.3944 87.989 63.9527 89.4304 62.1908 89.4304Z" fill="#DB90B5"/>
    <path d="M63.0985 85.5611H61.2833C60.9428 85.5611 60.667 85.285 60.667 84.9448V81.6317H63.7151V84.9448C63.7148 85.2853 63.439 85.5611 63.0985 85.5611Z" fill="#E59A80"/>
    <path d="M65.3944 81.6317V63.4713C65.3944 61.7095 63.9527 60.2678 62.1908 60.2678C60.429 60.2678 58.9873 61.7095 58.9873 63.4713V81.6317H65.3944Z" fill="#F1AACB"/>
    <path d="M38.4491 53.4444C37.7322 53.4444 37.1455 52.8577 37.1455 52.1408V50.0094C37.1455 49.2924 37.7322 48.7057 38.4491 48.7057C39.1661 48.7057 39.7528 49.2924 39.7528 50.0094V52.1408C39.7528 52.858 39.1661 53.4444 38.4491 53.4444Z" fill="#E59A80"/>
    <path d="M40.5927 54.061C39.8757 54.061 39.2891 53.4744 39.2891 52.7574V50.0094C39.2891 49.2924 39.8757 48.7057 40.5927 48.7057C41.3096 48.7057 41.8963 49.2924 41.8963 50.0094V52.7574C41.8966 53.4744 41.3099 54.061 40.5927 54.061Z" fill="#E59A80"/>
    <path d="M42.7367 53.4444C42.0198 53.4444 41.4331 52.8577 41.4331 52.1408V50.0094C41.4331 49.2924 42.0198 48.7057 42.7367 48.7057C43.4537 48.7057 44.0404 49.2924 44.0404 50.0094V52.1408C44.0404 52.858 43.4537 53.4444 42.7367 53.4444Z" fill="#E59A80"/>
    <path d="M73.3635 66.6155H70.5008C69.6976 66.6155 69.0405 67.2726 69.0405 68.0758H74.8238C74.8238 67.2729 74.1667 66.6155 73.3635 66.6155Z" fill="#DD8265"/>
    <path d="M72.4999 70.1371C71.783 70.1371 71.1963 69.5504 71.1963 68.8335V66.7021C71.1963 65.9851 71.783 65.3984 72.4999 65.3984C73.2169 65.3984 73.8036 65.9851 73.8036 66.7021V68.8335C73.8036 69.5504 73.2169 70.1371 72.4999 70.1371Z" fill="#E59A80"/>
    <path d="M74.644 70.7534C73.927 70.7534 73.3403 70.1667 73.3403 69.4498V66.7018C73.3403 65.9848 73.927 65.3981 74.644 65.3981C75.3609 65.3981 75.9476 65.9848 75.9476 66.7018V69.4498C75.9476 70.1667 75.3609 70.7534 74.644 70.7534Z" fill="#E59A80"/>
    <path d="M76.7875 70.1371C76.0706 70.1371 75.4839 69.5504 75.4839 68.8335V66.7021C75.4839 65.9851 76.0706 65.3984 76.7875 65.3984C77.5045 65.3984 78.0912 65.9851 78.0912 66.7021V68.8335C78.0912 69.5504 77.5048 70.1371 76.7875 70.1371Z" fill="#E59A80"/>
    <path d="M110.508 40.1074C108.63 40.1074 107.094 38.5711 107.094 36.6931V24.9125C107.094 23.0347 108.63 21.4981 110.508 21.4981C112.386 21.4981 113.922 23.0344 113.922 24.9125V36.6931C113.922 38.5711 112.386 40.1074 110.508 40.1074Z" fill="#DD8265"/>
    <path d="M114.435 37.1953H119.618C120.469 37.1953 121.159 36.5053 121.159 35.6542V23.9349H112.374V35.1337C112.374 36.2723 113.297 37.1953 114.435 37.1953Z" fill="#a0a0a0"/>
    <path d="M110.508 29.5514H102.184C100.855 29.5514 99.7773 28.4739 99.7773 27.1445V15.979C99.7773 14.7293 100.79 13.7161 102.04 13.7161H110.508V29.5514Z" fill="#a0a0a0"/>
    <path d="M121.129 24.3428H105.408V9.43896H114.442C118.135 9.43896 121.129 12.4329 121.129 16.126V24.3428Z" fill="#a0a0a0"/>
    <path d="M105.408 24.4914C103.932 24.4914 102.73 23.2902 102.73 21.8137V12.1163C102.73 10.6399 103.932 9.43866 105.408 9.43866C106.885 9.43866 108.086 10.6399 108.086 12.1163V21.8137C108.086 23.2902 106.885 24.4914 105.408 24.4914Z" fill="#a0a0a0"/>
    <path d="M105.408 23.5669C104.444 23.5669 103.655 22.7781 103.655 21.8141V12.1166C103.655 11.1526 104.444 10.3638 105.408 10.3638C106.372 10.3638 107.161 11.1526 107.161 12.1166V21.8141C107.161 22.7781 106.372 23.5669 105.408 23.5669Z" fill="#808080"/>
    <path d="M118.41 26.6848C119.928 26.6848 121.159 25.4538 121.159 23.9352C121.159 22.4167 119.928 21.1857 118.41 21.1857C116.891 21.1857 115.66 22.4167 115.66 23.9352C115.66 25.4538 116.891 26.6848 118.41 26.6848Z" fill="#DD8265"/>
    <path d="M102.527 26.6848C104.045 26.6848 105.276 25.4538 105.276 23.9352C105.276 22.4167 104.045 21.1857 102.527 21.1857C101.008 21.1857 99.7773 22.4167 99.7773 23.9352C99.7773 25.4538 101.008 26.6848 102.527 26.6848Z" fill="#DD8265"/>
    <path d="M118.797 20.5454C118.797 15.7622 114.691 11.8914 109.83 12.2834C105.498 12.6326 102.219 16.3677 102.219 20.7138V27.305C102.219 29.5026 103.389 31.5342 105.29 32.6369L107.415 33.8699C109.327 34.9794 111.688 34.9794 113.601 33.8699L115.726 32.6369C117.627 31.5342 118.797 29.5026 118.797 27.305L118.797 20.5454Z" fill="#E59A80"/>
    <path d="M105.86 20.8575C105.709 20.8575 105.56 20.7943 105.456 20.6709C105.267 20.4487 105.292 20.1175 105.512 19.9273C105.558 19.8875 106.664 18.9561 108.534 19.0537C108.827 19.0693 109.052 19.3188 109.036 19.6114C109.021 19.904 108.772 20.1265 108.479 20.1133C107.052 20.0369 106.236 20.7051 106.202 20.7335C106.102 20.8168 105.981 20.8575 105.86 20.8575Z" fill="#808080"/>
    <path d="M115.156 20.8575C115.307 20.8575 115.456 20.7943 115.56 20.6709C115.749 20.4487 115.724 20.1175 115.504 19.9273C115.458 19.8875 114.352 18.9561 112.482 19.0537C112.189 19.0693 111.964 19.3188 111.98 19.6114C111.995 19.904 112.244 20.1265 112.537 20.1133C113.964 20.0369 114.78 20.7051 114.814 20.7335C114.914 20.8168 115.035 20.8575 115.156 20.8575Z" fill="#808080"/>
    <path d="M110.508 28.5461C108.55 28.5461 107.196 27.5641 107.139 27.5221C106.977 27.403 106.943 27.1754 107.062 27.0133C107.181 26.8519 107.408 26.8172 107.571 26.9364C107.582 26.9448 108.798 27.8183 110.508 27.8183C112.217 27.8183 113.433 26.9448 113.446 26.9358C113.608 26.8175 113.835 26.8522 113.954 27.0142C114.073 27.176 114.038 27.4033 113.877 27.5218C113.82 27.5644 112.465 28.5461 110.508 28.5461Z" fill="#D28871"/>
    <path d="M110.519 26.577H110.495C109.875 26.577 109.367 26.0691 109.367 25.4482V22.6209C109.367 22 109.875 21.4921 110.495 21.4921H110.519C111.14 21.4921 111.648 22 111.648 22.6209V25.4482C111.648 26.0691 111.14 26.577 110.519 26.577Z" fill="#DD8265"/>
    <path d="M107.901 25.2919C107.494 25.2919 107.161 24.9586 107.161 24.5513V22.2387C107.161 21.8314 107.494 21.4981 107.901 21.4981C108.309 21.4981 108.642 21.8314 108.642 22.2387V24.5513C108.642 24.9586 108.309 25.2919 107.901 25.2919Z" fill="#B26955"/>
    <path d="M113.114 25.2919C112.707 25.2919 112.374 24.9586 112.374 24.5513V22.2387C112.374 21.8314 112.707 21.4981 113.114 21.4981C113.521 21.4981 113.855 21.8314 113.855 22.2387V24.5513C113.855 24.9586 113.521 25.2919 113.114 25.2919Z" fill="#B26955"/>
    <path d="M109.83 11.6671C108.882 11.7434 107.985 11.9821 107.161 12.3535V16.8609C107.161 17.881 107.821 18.7836 108.794 19.0924L112.548 20.284C112.946 20.4101 113.351 20.1136 113.351 19.6964V17.5144L119.168 19.971C119.168 15.2851 114.294 11.3071 109.83 11.6671Z" fill="#a0a0a0"/>
    <path d="M117.55 18.7384V22.1099C117.55 23.0518 117.877 23.9643 118.476 24.6915L118.797 25.0823V18.9181L117.55 18.7384Z" fill="#a0a0a0"/>
    <path d="M101.254 27.6875C101.788 27.6875 102.221 27.2545 102.221 26.7204C102.221 26.1864 101.788 25.7534 101.254 25.7534C100.72 25.7534 100.287 26.1864 100.287 26.7204C100.287 27.2545 100.72 27.6875 101.254 27.6875Z" fill="#FDD204"/>
    <path d="M119.764 27.6875C120.298 27.6875 120.731 27.2545 120.731 26.7204C120.731 26.1864 120.298 25.7534 119.764 25.7534C119.23 25.7534 118.797 26.1864 118.797 26.7204C118.797 27.2545 119.23 27.6875 119.764 27.6875Z" fill="#FDD204"/>
    <path d="M117.284 61.074H104.202V68.071H117.284V61.074Z" fill="#D18B45"/>
    <path d="M116.877 65.9561L105.115 67.9986C102.377 68.4813 99.2827 66.5533 99.2827 63.9146V61.1249L115.527 58.3032L116.877 65.9561Z" fill="#E5A258"/>
    <path d="M123.22 64.8375L116.877 65.9561L115.527 58.3032L121.871 57.1847C123.984 56.8121 126 58.2232 126.372 60.3364C126.745 62.4495 125.333 64.4647 123.22 64.8375Z" fill="#E5A258"/>
    <path d="M125.525 58.5134L139.987 75.7488L134.034 80.7438L119.572 63.5085C118.193 61.8646 118.407 59.4137 120.051 58.0343C121.695 56.6552 124.146 56.8696 125.525 58.5134Z" fill="#E5A258"/>
    <path d="M134.234 80.9813L132.846 79.3275L142.436 71.2952C143.218 70.6396 144.384 70.7424 145.04 71.5243C145.697 72.3071 145.594 73.4745 144.81 74.1307L136.404 81.1723C135.752 81.7183 134.781 81.6329 134.234 80.9813Z" fill="#FDD204"/>
    <path d="M121.169 92.5334V66.5967C121.169 64.4069 119.421 62.6151 117.284 62.6151C115.147 62.6151 113.398 64.4069 113.398 66.5967V92.5334H121.169Z" fill="#D18B45"/>
    <path d="M122.127 91.7952H112.441C111.424 91.7952 110.591 92.6274 110.591 93.6445C110.591 94.6615 111.424 95.4937 112.441 95.4937H122.127C123.144 95.4937 123.977 94.6615 123.977 93.6445C123.977 92.6274 123.145 91.7952 122.127 91.7952Z" fill="#FDD204"/>
    <path d="M126.304 46.8143H120.156V53.5588H126.304V46.8143Z" fill="#E59A80"/>
    <path d="M120.834 45.6541H118.657V53.5589H120.834C123.019 53.5589 124.807 51.7803 124.807 49.6063C124.807 47.4327 123.019 45.6541 120.834 45.6541Z" fill="#E59A80"/>
    <path d="M121.687 51.1528H114.217C113.896 51.1528 113.636 50.8926 113.636 50.5716V48.6414C113.636 48.3204 113.896 48.0601 114.217 48.0601H121.687C122.008 48.0601 122.269 48.3204 122.269 48.6414V50.5716C122.269 50.8926 122.008 51.1528 121.687 51.1528Z" fill="#EBF2F4"/>
    <path d="M117.952 50.3083C118.342 50.3083 118.658 49.9942 118.658 49.6066C118.658 49.2191 118.342 48.905 117.952 48.905C117.563 48.905 117.247 49.2191 117.247 49.6066C117.247 49.9942 117.563 50.3083 117.952 50.3083Z" fill="#EF4849"/>
    <path d="M120.784 48.0601H118.414C117.752 48.0601 117.211 47.5187 117.211 46.8571C117.211 46.1956 117.752 45.6541 118.414 45.6541H120.784C121.445 45.6541 121.987 46.1956 121.987 46.8571C121.987 47.5187 121.446 48.0601 120.784 48.0601Z" fill="#E59A80"/>
    <path d="M120.34 53.5588H114.838C114.174 53.5588 113.635 53.0204 113.635 52.3558C113.635 51.6913 114.174 51.1528 114.838 51.1528H120.34V53.5588Z" fill="#E59A80"/>
    <path d="M86.2877 62.6636L84.9951 64.7815C84.8831 64.9648 84.6839 65.0768 84.4689 65.0768H82.1285C80.7467 65.0768 79.5092 65.9324 79.0214 67.2252L78.7021 68.0707H91.0305L92.1691 65.965L86.2877 62.6636Z" fill="#E59A80"/>
    <path d="M86.7669 49.0945C87.7843 49.0945 88.609 48.2698 88.609 47.2524C88.609 46.2351 87.7843 45.4103 86.7669 45.4103C85.7495 45.4103 84.9248 46.2351 84.9248 47.2524C84.9248 48.2698 85.7495 49.0945 86.7669 49.0945Z" fill="#ADCBD2"/>
    <path d="M84.3011 44.7862L83.2227 43.7081" stroke="#ADCBD2" stroke-width="1.18148" stroke-linecap="round"/>
    <path d="M84.3011 49.7183L83.2227 50.7967" stroke="#ADCBD2" stroke-width="1.18148" stroke-linecap="round"/>
    <path d="M89.2334 49.7183L90.3118 50.7967" stroke="#ADCBD2" stroke-width="1.18148" stroke-linecap="round"/>
    <path d="M89.2334 44.7862L90.3118 43.7081" stroke="#ADCBD2" stroke-width="1.18148" stroke-linecap="round"/>
    <path d="M16.5514 42.329H6.77307C6.43256 42.329 6.15674 42.0528 6.15674 41.7126V37.2968C6.15674 36.9563 6.43286 36.6805 6.77307 36.6805H16.5514C16.8919 36.6805 17.1677 36.9566 17.1677 37.2968V41.7126C17.168 42.0531 16.8919 42.329 16.5514 42.329Z" fill="#EBF2F4"/>
    <path d="M21.5528 50.0768H11.7745C11.434 50.0768 11.1582 49.8006 11.1582 49.4604V45.0446C11.1582 44.7041 11.4343 44.4283 11.7745 44.4283H21.5528C21.8933 44.4283 22.1692 44.7044 22.1692 45.0446V49.4604C22.1695 49.8006 21.8933 50.0768 21.5528 50.0768Z" fill="#EBF2F4"/>
    <path d="M156.983 42.329H166.761C167.101 42.329 167.377 42.0528 167.377 41.7126V37.2968C167.377 36.9563 167.101 36.6805 166.761 36.6805H156.983C156.642 36.6805 156.366 36.9566 156.366 37.2968V41.7126C156.366 42.0531 156.642 42.329 156.983 42.329Z" fill="#EBF2F4"/>
    <path d="M151.981 50.0768H161.759C162.1 50.0768 162.376 49.8006 162.376 49.4604V45.0446C162.376 44.7041 162.1 44.4283 161.759 44.4283H151.981C151.641 44.4283 151.365 44.7044 151.365 45.0446V49.4604C151.365 49.8006 151.641 50.0768 151.981 50.0768Z" fill="#EBF2F4"/>
  </g>
  <defs>
    <clipPath id="clip0_18_2568">
      <rect width="179.987" height="98.8281" fill="white" transform="translate(0.00634766)"/>
    </clipPath>
  </defs>
</svg>