<svg width="127" height="180" viewBox="0 0 127 180" fill="none" xmlns="http://www.w3.org/2000/svg">
<g clip-path="url(#clip0_18_2755)" filter="url(#filter0_d_18_2755)">
<path d="M35.625 179.625H117.875C118.688 179.625 119.375 178.937 119.375 178.125C119.375 177.312 118.688 176.625 117.875 176.625H35.625C34.8125 176.625 34.125 177.312 34.125 178.125C34.125 178.937 34.75 179.625 35.625 179.625Z" fill="#E9E9EA"/>
<path d="M44.876 58.8125C46.0635 61.5 49.251 62.75 52.001 61.5L59.126 58.3125L56.5635 52.625L45.376 57.6875C44.876 57.8125 44.6885 58.375 44.876 58.8125Z" fill="#FFCF01"/>
<path d="M44.9392 50.375C43.9392 53.1875 45.4392 56.25 48.2517 57.25L55.6267 59.8125L57.6892 53.9375L46.1267 49.875C45.6267 49.6875 45.1267 49.875 44.9392 50.375Z" fill="#FFCF01"/>
<path d="M64 0.3125C54.875 0.3125 47.5 7.6875 47.5 16.8125V46.1875H80.4375V16.8125C80.5 7.6875 73.125 0.3125 64 0.3125Z" fill="#FFDB01"/>
<path d="M64 0.3125C54.875 0.3125 47.5 7.6875 47.5 16.8125V46.1875H80.4375V16.8125C80.5 7.6875 73.125 0.3125 64 0.3125Z" fill="#FFDB01"/>
<path d="M56.4258 47.0372H65.9258V39.2872H56.4258V47.0372Z" fill="#FFDB01"/>
<path d="M62.4375 61.9375H69.4375C75.625 61.9375 80.5625 56.9375 80.5625 50.8125V25.0625H62.4375V61.9375Z" fill="#FFDB01"/>
<path d="M54.5625 75.5625L54.875 45.375L75.9375 46L77.8125 75.5625H54.5625Z" fill="#FFB5A1"/>
<path d="M112.25 9.68746L107.438 6.37496C106.938 5.99996 106.25 6.12496 105.875 6.62496C100.062 14 81.4375 37.3125 70 51.1875C72.0625 53 74.375 54.5 76.3125 56.3125C88.25 41.8125 108.5 16.5625 112.5 11.5C112.938 10.9375 112.812 10.125 112.25 9.68746Z" fill="#FFB5A1"/>
<path d="M117.874 4.5L106.812 6.4375C105.437 6.6875 104.499 8 104.749 9.375L105.187 11.875L118.749 9.5L117.874 4.5Z" fill="#FFB5A1"/>
<path d="M114.25 0.74999C115.125 1.43749 115.312 2.68749 114.625 3.56249L111.937 6.87499L109.75 4.99999L109 4.06249L111.375 1.12499C112.063 0.24999 113.375 0.06249 114.25 0.74999Z" fill="#FFB5A1"/>
<path d="M117.75 12.875C117.5 13.9375 116.437 14.625 115.312 14.375L104.188 11.3125L104.75 8.9375L107.063 7.875L116.25 10.375C117.312 10.6875 118 11.8125 117.75 12.875Z" fill="#FFB5A1"/>
<path d="M121.438 9.0625C121.5 10.1875 120.625 11.125 119.5 11.1875L108 11.125L107.875 7.0625L119.375 7.125C120.437 7.0625 121.375 7.9375 121.438 9.0625Z" fill="#FFB5A1"/>
<path d="M122.625 3.56248C123 4.62498 122.5 5.74998 121.438 6.18748L110.5 9.68748L109.062 5.87498L120 2.37498C121.062 1.99998 122.25 2.56248 122.625 3.56248Z" fill="#FFB5A1"/>
<path d="M109.25 4.125C108.312 4.125 105.25 6 104.875 9L110.125 6.0625L110.625 4.1875C110.625 4.1875 110.188 4.125 109.25 4.125Z" fill="#FFB5A1"/>
<path d="M69.5625 51L76.6875 59.625L85.75 47.5C86.5 46.5 86.375 45.0625 85.375 44.3125L80.625 40.5625C79.625 39.8125 78.1875 39.9375 77.4375 40.9375L74.1875 45.0625L73.125 46.4375L69.5625 51Z" fill="#F34848"/>
<path d="M15.4374 9.68746L20.2499 6.37496C20.7499 5.99996 21.4374 6.12496 21.8124 6.62496C27.6249 14 46.2499 37.3125 57.6874 51.1875C55.6249 53 53.3124 54.5 51.3749 56.3125C39.4374 41.8125 19.1874 16.5625 15.1874 11.5C14.6874 10.9375 14.8124 10.125 15.4374 9.68746Z" fill="#FFB5A1"/>
<path d="M9.75 4.5L20.8125 6.4375C22.1875 6.6875 23.125 8 22.875 9.375L22.4375 11.875L8.875 9.5L9.75 4.5Z" fill="#FFB5A1"/>
<path d="M13.0627 1.37497C12.2502 2.12497 12.1877 3.43747 12.9377 4.24997L15.9377 7.31247L18.6252 4.18747L15.9377 1.49997C15.1877 0.687471 13.9377 0.624971 13.0627 1.37497Z" fill="#FFB5A1"/>
<path d="M9.93814 12.875C10.1881 13.9375 11.2506 14.625 12.3756 14.375L23.5006 11.3125L22.9381 8.9375L20.6256 7.875L11.4381 10.375C10.3756 10.6875 9.68814 11.8125 9.93814 12.875Z" fill="#FFB5A1"/>
<path d="M6.2512 9.0625C6.1887 10.1875 7.0637 11.125 8.1887 11.1875L19.6887 11.125L19.8137 7.0625L8.3137 7.125C7.2512 7.0625 6.3137 7.9375 6.2512 9.0625Z" fill="#FFB5A1"/>
<path d="M5.06326 3.56248C4.68826 4.62498 5.18825 5.74998 6.25076 6.18748L17.1883 9.68748L18.6258 5.87498L7.68826 2.37498C6.62576 1.99998 5.43826 2.56248 5.06326 3.56248Z" fill="#FFB5A1"/>
<path d="M18.438 4.125C19.813 4.125 22.438 6 22.8755 9L17.6255 6.0625L17.1255 4.1875C17.063 4.1875 17.063 4.125 18.438 4.125Z" fill="#FFB5A1"/>
<path d="M58.1267 51L51.0017 59.625L41.9392 47.5C41.1892 46.5 41.3142 45.0625 42.3142 44.3125L47.0642 40.5625C48.0642 39.8125 49.5017 39.9375 50.2517 40.9375L53.5017 45.0625L54.5642 46.4375L58.1267 51Z" fill="#F34848"/>
<path d="M50.8125 44.3125V54.5C50.8125 57.1875 51 59.9375 51.4375 62.625L53.3125 74.625H78.5V44.3125H50.8125Z" fill="#F34848"/>
<path d="M49.5625 133.687L49.0625 172.438H56.125L59.75 131.375L49.5625 133.687Z" fill="#FFB5A1"/>
<path d="M58.0625 176.562H48.9375C47.375 176.562 46.125 175.312 46.125 173.75C46.125 172.188 47.375 170.938 48.9375 170.938H58.0625C59.625 170.938 60.875 172.188 60.875 173.75C60.875 175.312 59.625 176.562 58.0625 176.562Z" fill="#14202D"/>
<path d="M80.3125 133.687L98.5 172.438H105.5L90.5 131.375L80.3125 133.687Z" fill="#FFB5A1"/>
<path d="M110.938 176.562H98.3125C96.75 176.562 95.5 175.312 95.5 173.75C95.5 172.188 96.75 170.938 98.3125 170.938H110.938C112.5 170.938 113.75 172.188 113.75 173.75C113.75 175.312 112.5 176.562 110.938 176.562Z" fill="#14202D"/>
<path d="M65.75 56.1875C69.9375 56.1875 73.375 52.75 73.375 48.5625V44.3125H58.125V48.5625C58.125 52.75 61.5 56.1875 65.75 56.1875Z" fill="#FF6464"/>
<path d="M59.5625 44.25V48.1875C59.5625 51.625 62.3125 54.375 65.75 54.375C69.1875 54.375 71.9375 51.625 71.9375 48.1875V44.25H59.5625Z" fill="#FF9D8A"/>
<path d="M66.125 49.3125C68.5 49.3125 70.4375 47.375 70.4375 45V31.125H61.8125V45C61.8125 47.375 63.75 49.3125 66.125 49.3125Z" fill="#FF9D8A"/>
<path d="M90.5 131.375L80.3125 133.687L82.25 138.188H92.8125L90.5 131.375Z" fill="#FF9D8A"/>
<path d="M49.5 138.188H59.1875L59.75 131.375L49.5625 133.687L49.5 138.188Z" fill="#FF9D8A"/>
<path d="M92.875 134.812C93.875 134.812 94.625 133.812 94.375 132.812L78.625 74.5625H53.375C53.375 74.5625 46.0625 79.5625 46.0625 96V131.5C46.0625 133.312 47.5625 134.812 49.375 134.812H92.875Z" fill="#F34848"/>
<path d="M77.8125 28.25C80.2287 28.25 82.1875 26.2912 82.1875 23.875C82.1875 21.4588 80.2287 19.5 77.8125 19.5C75.3963 19.5 73.4375 21.4588 73.4375 23.875C73.4375 26.2912 75.3963 28.25 77.8125 28.25Z" fill="#FF9D8A"/>
<path d="M67.3753 41.0625C60.0628 41.5625 53.7503 36.0625 53.3128 28.75L52.4378 16.0625C51.9378 8.75001 57.4378 2.5 64.7503 2C72.0628 1.5 78.3128 7 78.8128 14.3125L79.6878 27C80.1878 34.25 74.6253 40.5625 67.3753 41.0625Z" fill="#FFB5A1"/>
<path d="M71.6876 27.1875L70.6876 27.25C70.1251 27.3125 69.6251 26.875 69.6251 26.3125L69.2501 21.125C69.1876 20.5625 69.6251 20.0625 70.1876 20.0625L71.1876 20C71.7501 19.9375 72.2501 20.375 72.2501 20.9375L72.6251 26.125C72.6876 26.6875 72.2501 27.1875 71.6876 27.1875Z" fill="#FF9D8A"/>
<path d="M77.6875 19.125C77 16.5 74.25 16.5625 74.25 16.5625" stroke="#FFD201" stroke-width="1.52769" stroke-linecap="round"/>
<path d="M65.6875 27C66.375 26.9375 66.875 26.375 66.875 25.6875L66.75 22.375C66.6875 21.6875 66.125 21.1875 65.4375 21.1875C64.75 21.25 64.25 21.8125 64.25 22.5L64.375 25.8125C64.4375 26.5 65.0625 27 65.6875 27Z" fill="#E58D80"/>
<path d="M74.75 26.5625C75.4375 26.5 75.9375 25.9375 75.9375 25.25L75.8125 21.9375C75.75 21.25 75.1875 20.75 74.5 20.75C73.8125 20.8125 73.3125 21.375 73.3125 22.0625L73.4375 25.375C73.5 26.0625 74.125 26.625 74.75 26.5625Z" fill="#E58D80"/>
<path d="M62.813 31.5625L62.8755 31.625C63.2505 32 63.6255 32.3125 64.063 32.625C64.938 33.3125 66.063 33.875 67.5005 34.1875C69.6255 34.625 71.2505 34.0625 72.8755 33.4375C72.8755 33.4375 72.938 33.4375 72.938 33.375C73.938 32.9375 74.3755 31.8125 74.0005 30.8125C73.7505 30.1875 73.2505 29.75 72.6255 29.5625C72.3755 29.5 72.1255 29.5 71.8755 29.5C71.688 29.5 71.5005 29.5625 71.313 29.625C70.0005 30.125 69.188 30.375 68.188 30.1875C67.1255 30 66.5005 29.5 65.438 28.5625C65.1255 28.3125 64.813 28.125 64.438 28.0625C63.813 27.9375 63.063 28.125 62.563 28.6875C61.938 29.5 62.0005 30.8125 62.813 31.5625Z" fill="#A44242"/>
<path d="M62.8125 31.5625L62.875 31.625C63.25 32 63.625 32.3125 64.0625 32.625L71.0625 31.6875C71.125 31.6875 71.125 31.6875 71.1875 31.6875C71.75 31.5625 72.125 31.0625 72.0625 30.5L71.9375 29.5625C71.75 29.5625 71.5625 29.625 71.375 29.6875C70.0625 30.1875 69.25 30.4375 68.25 30.25C67.1875 30.0625 66.5625 29.5625 65.5 28.625C65.1875 28.375 64.875 28.1875 64.5 28.125C63.875 28 63.125 28.1875 62.625 28.75C61.9375 29.5 62 30.8125 62.8125 31.5625Z" fill="white"/>
<path d="M66.875 32.625C66.25 32.6875 65.75 33 65.375 33.5C66 33.8125 66.6875 34.0625 67.5625 34.25C68.25 34.375 68.9375 34.4375 69.5625 34.375C69.1875 33.1875 68.0625 32.4375 66.875 32.625Z" fill="#F34848"/>
<path d="M52.4376 47.375C55.4376 47.375 57.8751 44.9375 57.8751 41.9375V4.125L51.5626 7.375V46.5C51.5001 47 51.9376 47.375 52.4376 47.375Z" fill="#FFDB01"/>
<path d="M61.75 1.625L63.75 6.875C63.75 12.625 63.0625 14.9375 61 18.6875L60.8125 19.0625C59.8125 20.875 58.9375 22.3125 58.6875 24.375L58.3125 26.9375C57.9375 29.6875 57.75 32.4375 57.75 35.1875V39.0625L50.0625 32.1875L50.5625 12L61.75 1.625Z" fill="#FFDB01"/>
<path d="M53.5616 28.625L53.2491 20.3125C51.9991 20.8125 50.9991 21.8125 50.5616 23.1875C49.9366 25.5 51.2491 27.9375 53.5616 28.625Z" fill="#FF9D8A"/>
<path d="M82.0625 16.8125C82.0625 8.3125 75.0625 2.5 67.8125 0.812503C66.0625 0.750003 64.25 0.937503 62.5625 1.4375L57.8125 4.125C57.8125 4.125 56.5 5.9375 58.1875 8.0625C61.5 12.1875 70.25 18.5 81.3125 21.3125C82.25 21.5625 83.0625 20.75 82.8125 19.8125L82.0625 16.8125Z" fill="#FFDB01"/>
<path d="M78.626 69.5H52.626C52.1885 69.5 51.8135 69.9375 51.876 70.4375L52.376 73.875C52.4385 74.3125 52.751 74.5625 53.126 74.5625H78.626C79.0635 74.5625 79.376 74.1875 79.376 73.75V70.3125C79.376 69.875 79.0635 69.5 78.626 69.5Z" fill="#A44242"/>
</g>
<defs>
<filter id="filter0_d_18_2755" x="0.9375" y="0" width="126.125" height="188" filterUnits="userSpaceOnUse" color-interpolation-filters="sRGB">
<feFlood flood-opacity="0" result="BackgroundImageFix"/>
<feColorMatrix in="SourceAlpha" type="matrix" values="0 0 0 0 0 0 0 0 0 0 0 0 0 0 0 0 0 0 127 0" result="hardAlpha"/>
<feOffset dy="4"/>
<feGaussianBlur stdDeviation="2"/>
<feComposite in2="hardAlpha" operator="out"/>
<feColorMatrix type="matrix" values="0 0 0 0 0 0 0 0 0 0 0 0 0 0 0 0 0 0 0.25 0"/>
<feBlend mode="normal" in2="BackgroundImageFix" result="effect1_dropShadow_18_2755"/>
<feBlend mode="normal" in="SourceGraphic" in2="effect1_dropShadow_18_2755" result="shape"/>
</filter>
<clipPath id="clip0_18_2755">
<rect width="118.125" height="180" fill="white" transform="translate(4.9375)"/>
</clipPath>
</defs>
</svg>
