<svg xmlns="http://www.w3.org/2000/svg" width="143" height="144" viewBox="0 0 143 144" fill="none">
  <g clip-path="url(#clip0_18_1346)">
    <path fill-rule="evenodd" clip-rule="evenodd" d="M90.6369 10.0814L133.886 53.242C144.362 63.6973 144.38 80.6659 133.925 91.1425C133.912 91.1554 133.899 91.1683 133.886 91.1812L90.6369 134.342C80.1754 144.782 63.2367 144.782 52.7752 134.342L9.52629 91.1812C-0.950322 80.726 -0.967651 63.7574 9.48758 53.2808C9.50047 53.2678 9.51338 53.2549 9.52629 53.242L52.7752 10.0814C63.2367 -0.35872 80.1754 -0.358721 90.6369 10.0814Z" fill="#a0a0a0"/>
    <path fill-rule="evenodd" clip-rule="evenodd" d="M128.997 41.7198L128.997 102.703C128.997 117.505 116.998 129.503 102.197 129.503H40.9794C26.1783 129.503 14.1797 117.505 14.1797 102.703L14.1797 41.7198C14.1797 26.9187 26.1783 14.9201 40.9794 14.9201L102.197 14.9201C116.998 14.9201 128.997 26.9187 128.997 41.7198Z" fill="#a0a0a0"/>
    <path fill-rule="evenodd" clip-rule="evenodd" d="M53.6223 45.1786H89.7943C100.608 45.1786 109.374 53.9446 109.374 64.7579V101.146C109.374 111.96 100.608 120.726 89.7943 120.726H53.6223C42.8089 120.726 34.043 111.96 34.043 101.146V64.7579C34.043 53.9446 42.8089 45.1786 53.6223 45.1786Z" fill="#C6775C"/>
    <path fill-rule="evenodd" clip-rule="evenodd" d="M71.4392 95.0543C73.7302 95.0543 75.5874 93.2351 75.5874 90.991C75.5874 88.7469 71.4392 83.4395 71.4392 83.4395C71.4392 83.4395 67.291 88.7469 67.291 90.991C67.291 93.2351 69.1482 95.0543 71.4392 95.0543Z" fill="#80411F"/>
    <path d="M112.693 87.1477C116.175 87.1477 118.998 84.3247 118.998 80.8424C118.998 77.3602 116.175 74.5372 112.693 74.5372C109.211 74.5372 106.388 77.3602 106.388 80.8424C106.388 84.3247 109.211 87.1477 112.693 87.1477Z" fill="#C6775C"/>
    <path d="M30.3931 88.1432C33.8754 88.1432 36.6983 85.3203 36.6983 81.838C36.6983 78.3557 33.8754 75.5328 30.3931 75.5328C26.9108 75.5328 24.0879 78.3557 24.0879 81.838C24.0879 85.3203 26.9108 88.1432 30.3931 88.1432Z" fill="#C6775C"/>
    <path d="M78.3642 100.293C78.8099 99.8814 78.8551 99.1663 78.4653 98.6957C78.0756 98.2251 77.3983 98.1773 76.9527 98.5889C75.4909 99.9391 73.649 100.69 71.7001 100.69C69.7229 100.69 67.856 99.9169 66.3852 98.5309C65.9435 98.1146 65.2659 98.1552 64.8716 98.6216C64.4774 99.0881 64.5159 99.8036 64.9576 100.22C66.8161 101.971 69.189 102.954 71.7001 102.954C74.1752 102.954 76.5167 101.999 78.3642 100.293Z" fill="#914D28"/>
    <path fill-rule="evenodd" clip-rule="evenodd" d="M111.515 42.6668L97.3537 37.9465C95.2105 37.2321 94.0522 34.9156 94.7666 32.7724C94.9675 32.1699 95.3058 31.6225 95.7548 31.1735L105.195 21.7328C106.793 20.1354 109.383 20.1354 110.98 21.7328C111.429 22.1819 111.768 22.7293 111.968 23.3317L116.689 37.4927C117.403 39.6359 116.245 41.9524 114.102 42.6668C113.262 42.9467 112.354 42.9467 111.515 42.6668Z" fill="#a0a0a0"/>
    <path fill-rule="evenodd" clip-rule="evenodd" d="M57.1973 120.449H86.2668V140.906C86.2668 142.244 85.1823 143.328 83.8444 143.328H59.6197C58.2818 143.328 57.1973 142.244 57.1973 140.906V120.449Z" fill="#FFAE00"/>
    <path fill-rule="evenodd" clip-rule="evenodd" d="M83.1712 120.449V121.593C83.1712 125.049 80.3694 127.851 76.9132 127.851C74.8414 127.851 73.0048 126.845 71.8658 125.294C70.7279 126.845 68.8913 127.851 66.8196 127.851C63.3633 127.851 60.5615 125.049 60.5615 121.593V120.449H83.1712Z" fill="white"/>
    <path d="M71.8667 139.291C73.6505 139.291 75.0966 137.784 75.0966 135.926C75.0966 134.068 73.6505 132.562 71.8667 132.562C70.0828 132.562 68.6367 134.068 68.6367 135.926C68.6367 137.784 70.0828 139.291 71.8667 139.291Z" fill="white"/>
    <path d="M101.398 75.0281C101.398 67.0379 94.9206 60.5606 86.9304 60.5606C78.9402 60.5606 72.4629 67.0379 72.4629 75.0281C72.4629 83.0183 78.9402 89.4956 86.9304 89.4956C94.9206 89.4956 101.398 83.0183 101.398 75.0281Z" fill="white"/>
    <path d="M70.1938 75.0281C70.1938 67.0379 63.7165 60.5606 55.7263 60.5606C47.7361 60.5606 41.2588 67.0379 41.2588 75.0281C41.2588 83.0183 47.7361 89.4956 55.7263 89.4956C63.7165 89.4956 70.1938 83.0183 70.1938 75.0281Z" fill="white"/>
    <path fill-rule="evenodd" clip-rule="evenodd" d="M83.1706 66.6168C87.1092 66.6168 90.302 69.8096 90.302 73.7483V77.6538C90.302 81.5924 87.1092 84.7852 83.1706 84.7852C79.2319 84.7852 76.0391 81.5924 76.0391 77.6538V73.7483C76.0391 73.3587 76.0703 72.9765 76.1304 72.6039C76.3711 72.6497 76.6195 72.6729 76.8734 72.6729C79.1215 72.6729 80.9439 70.8506 80.9439 68.6026C80.9439 68.0627 80.8388 67.5474 80.648 67.076C81.432 66.7791 82.2823 66.6168 83.1706 66.6168Z" fill="#363636"/>
    <path fill-rule="evenodd" clip-rule="evenodd" d="M59.6188 65.9438C63.5574 65.9438 66.7503 69.1367 66.7503 73.0753V77.6537C66.7503 81.5924 63.5574 84.7852 59.6188 84.7852C55.6802 84.7852 52.4873 81.5924 52.4873 77.6537V73.0753C52.4873 72.9121 52.4928 72.7501 52.5036 72.5896C52.7679 72.6446 53.0415 72.6729 53.3217 72.6729C55.5697 72.6729 57.3922 70.8506 57.3922 68.6026C57.3922 67.8398 57.1824 67.1261 56.8173 66.5159C57.677 66.1475 58.6241 65.9438 59.6188 65.9438Z" fill="#363636"/>
    <path fill-rule="evenodd" clip-rule="evenodd" d="M105.988 89.4619L90.8096 104.641L75.631 89.4619C84.0139 81.0791 97.6052 81.0791 105.988 89.4619Z" fill="#C6775C"/>
    <path fill-rule="evenodd" clip-rule="evenodd" d="M36.6017 89.4619L51.7803 104.641L66.9588 89.4619C58.5759 81.0791 44.9846 81.0791 36.6017 89.4619Z" fill="#C6775C"/>
    <path fill-rule="evenodd" clip-rule="evenodd" d="M42.0568 27.5882C51.7703 27.5882 59.6448 35.4626 59.6448 45.1762V53.7391C59.6448 63.4527 51.7703 71.3271 42.0568 71.3271C32.3432 71.3271 24.4688 63.4527 24.4688 53.7391V45.1762C24.4688 35.4626 32.3432 27.5882 42.0568 27.5882Z" fill="#a0a0a0"/>
  </g>
  <defs>
    <clipPath id="clip0_18_1346">
      <rect width="142.656" height="142.656" fill="white" transform="translate(0 0.671875)"/>
    </clipPath>
  </defs>
</svg>